# xmcd CD database file
#
# Track frame offsets:
#	150
#	18019
#	33681
#	51446
#	75092
#	90334
#	107256
#	122252
#	140563
#	153958
#	169744
#	194154
#
# Disc length: 2801 seconds
#
# Revision: 0
# Processed by: cddbd v1.5.2PL0 Copyright (c) Steve Scherf et al.
# Submitted via: CDex 1.51
#
DISCID=880aef0c
DTITLE=Seth James - That Kind Of Man
DYEAR=2009
DGENRE=Country
TTITLE0=Thing For You
TTITLE1=Leaves Of September
TTITLE2=Cigarettes, Anger And Wine
TTITLE3=Again
TTITLE4=All Of You
TTITLE5=Slow Roll
TTITLE6=Ain't No Problem Son
TTITLE7=Honky Tonk Saturday Night
TTITLE8=It Ain't Me
TTITLE9=If The World Was Mine
TTITLE10=Two For Tuesday
TTITLE11=That Kind Of Man
EXTD=YEAR: 2009
EXTT0=
EXTT1=
EXTT2=
EXTT3=
EXTT4=
EXTT5=
EXTT6=
EXTT7=
EXTT8=
EXTT9=
EXTT10=
EXTT11=
PLAYORDER=
